<?xml version="1.0" encoding="UTF-8"?>
<svg width="1024" height="1024" viewBox="0 0 1024 1024" xmlns="http://www.w3.org/2000/svg" xmlns:xlink="http://www.w3.org/1999/xlink"><g class="drawing-elements"><g>
  <title>Layer 1</title>
  <g id="svg_5">
   <path stroke="#000" fill="#000" id="svg_2" d="m615.06847,50.09776c-4.73125,1.74125 -53.46314,23.88005 -99.238,44.77509c-15.96797,7.33814 -35.12954,16.04441 -42.58127,19.27816c-7.45172,3.23376 -18.68844,8.33314 -24.83907,11.19377c-6.15063,2.86063 -25.9036,11.81565 -43.76408,19.90004c-63.63534,28.73068 -129.16317,58.45637 -131.05567,59.57574c-1.53766,0.87063 -1.18281,1.4925 2.12906,2.98501c2.24734,0.995 15.61313,7.21376 29.57032,13.93003c32.52736,15.54691 103.14129,49.2526 114.73285,54.72511c4.84953,2.23875 17.62391,8.33314 28.38751,13.43253c10.7636,5.09939 28.62407,13.68128 39.62423,18.90504c11.11844,5.34814 27.08642,12.81065 35.48439,16.79066c27.67782,12.81065 76.64628,36.1932 82.67862,39.42695l5.79578,3.10938l8.98938,-4.35313c4.96781,-2.4875 28.15095,-13.30815 51.57064,-24.25317c23.4197,-10.94502 48.49533,-22.63629 55.59221,-26.1188c24.0111,-11.5669 73.09784,-34.82507 94.62503,-44.77509c11.70985,-5.47251 30.39829,-14.17878 41.39845,-19.52691c11.11844,-5.34814 36.07579,-17.16378 55.59221,-26.36755c19.51641,-9.07939 35.95751,-17.16378 36.54892,-17.78566c1.41938,-1.4925 3.66672,-0.37313 -85.63566,-41.41696c-43.88236,-20.14879 -90.72175,-41.66571 -104.08754,-47.88447c-65.05471,-29.97443 -94.97988,-43.78009 -117.68989,-54.35198c-13.60235,-6.34314 -25.9036,-11.81565 -27.2047,-12.18877c-1.30109,-0.37313 -4.25813,0.12438 -6.62375,0.995zm33.59189,36.81507c16.32282,7.58689 39.38767,18.15879 51.09752,23.50692c11.70985,5.34814 35.36611,16.16878 52.63518,24.25317c37.02204,17.16378 68.36659,31.59131 106.45316,49.00385c15.25829,7.08939 31.69939,14.67628 36.54892,16.91503l8.75282,4.10438l-4.02156,1.86563c-2.24734,0.995 -8.75282,3.98001 -14.66688,6.71626c-5.79578,2.86063 -24.24767,11.31815 -40.80705,19.02941c-16.55938,7.71127 -33.35532,15.54691 -37.25861,17.41253c-3.90328,1.86563 -16.67766,7.96002 -28.50579,13.43253c-11.82813,5.47251 -32.76392,15.42253 -46.72111,22.13879c-13.95719,6.59189 -46.60283,22.01442 -72.62471,34.20319l-47.19424,22.26317l-51.57064,-24.37755c-28.26923,-13.43253 -59.73205,-28.35756 -69.78596,-33.20819c-10.05391,-4.72626 -29.21548,-13.80565 -42.58127,-20.14879c-13.36579,-6.34314 -41.7533,-19.77566 -63.28049,-29.85006c-21.40891,-10.19877 -43.40923,-20.52192 -48.85017,-23.00942c-5.44094,-2.61188 -9.34422,-5.09939 -8.75282,-5.47251c0.59141,-0.37313 25.3122,-11.5669 54.76424,-24.87505c29.57032,-13.18378 67.77518,-30.47194 85.04425,-38.30758c17.26907,-7.96002 40.09736,-18.28316 50.86096,-23.1338c27.55954,-12.31315 51.45236,-23.25817 77.47425,-35.44694c12.41954,-5.84564 22.59173,-10.5719 22.82829,-10.69627c0.11828,-0.12438 13.72063,6.09439 30.16173,13.68128z" class="" data-stroke-color="#000"/>
   <path stroke="#0057b8" fill="#0057b8" id="svg_3" d="m347.89569,305.81327c-41.21374,18.90504 -73.36046,33.58132 -84.90031,38.80508l-14.48369,6.46751l0,79.10266l0,79.10266l10.83333,4.85063c6.00543,2.61188 11.30434,4.97501 11.77536,5.22376c0.47101,0.24875 0.82427,-32.71069 0.70652,-73.38139c0,-45.27259 0.35326,-73.63015 0.94203,-73.50577c0.70652,0.12438 5.88768,2.4875 11.6576,5.34814c5.88768,2.86063 18.01629,8.70627 27.08332,13.0594c9.06702,4.22876 37.44563,17.91004 62.99815,30.22318c25.55252,12.31315 61.11409,29.22818 78.89488,37.56132c17.78079,8.33314 43.80432,20.64629 57.69924,27.36255c13.89492,6.71626 39.32969,18.90504 56.5217,27.1138l31.20469,14.92503l0.82427,193.15476c0.47101,106.21646 0.70652,193.27913 0.47101,193.52788c-0.11775,0.24875 -9.53804,-4.35313 -20.84238,-10.07439c-11.30434,-5.72126 -25.19926,-12.68628 -31.08694,-15.67128c-44.39309,-22.26317 -83.36951,-41.66571 -101.85682,-50.7451c-12.01086,-5.84564 -26.14129,-13.0594 -31.4402,-15.79566l-9.77354,-5.22376l0,13.30815l0,13.18378l52.16482,25.99443c28.61411,14.30315 66.05974,32.83506 83.25176,41.29258c17.19202,8.58189 41.09599,20.39754 53.22461,26.49193l22.13767,11.0694l10.83333,-5.09939c6.00543,-2.73626 20.0181,-9.07939 30.96918,-14.0544c11.06883,-4.97501 30.38042,-13.80565 42.98005,-19.65129c44.8641,-20.52192 113.98544,-52.2376 136.00535,-62.43637c65.35322,-30.09881 116.69377,-53.73011 127.17384,-58.45637c6.47645,-2.86063 13.77717,-6.34314 16.24999,-7.58689l4.35688,-2.23875l0,-149.25029c0.11775,-82.21204 0.35326,-178.47848 0.70652,-214.0498l0.58877,-64.67513l-8.59601,-3.60688c-4.71014,-1.99 -22.60868,-10.19877 -39.8007,-18.28316c-17.19202,-7.96002 -36.97462,-17.16378 -44.03983,-20.39754l-12.83514,-5.84564l-11.53985,5.72126c-6.47645,3.10938 -12.24637,5.72126 -12.83514,5.72126c-2.23732,0 -1.17754,2.36313 1.5308,3.10938c1.41304,0.4975 15.89673,7.33814 32.02897,15.17378c16.24999,7.83564 33.32426,15.92003 38.0344,18.03441c4.59239,1.99 8.47826,4.10438 8.47826,4.72626c0,0.4975 -2.47282,1.99 -5.53442,3.48251c-22.72644,10.19877 -46.74816,21.26817 -82.78075,38.1832c-52.9891,24.75067 -62.29163,29.10381 -105.38943,49.12822c-19.42934,8.95502 -39.8007,18.53191 -45.33512,21.14379c-5.53442,2.61188 -21.66665,10.19877 -35.91483,16.79066c-14.24818,6.71626 -31.4402,14.67628 -38.2699,17.91004l-12.24637,5.84564l-26.6123,-12.93503c-29.6739,-14.5519 -33.79527,-16.54191 -94.79161,-45.27259c-69.00358,-32.71069 -183.46003,-87.56017 -190.87851,-91.54018l-4.59239,-2.4875l2.94384,-1.24375c11.77536,-4.85063 17.54528,-7.58689 39.44744,-17.91004c13.65941,-6.46751 28.49636,-13.80565 32.97099,-16.29316c8.125,-4.35313 8.24275,-4.35313 5.0634,-5.72126c-1.7663,-0.62188 -7.41847,-3.48251 -12.48188,-6.09439l-9.18478,-4.72626l-4.71014,2.11438zm613.14274,89.05268c0.23551,47.63572 -0.35326,370.38948 -0.70652,370.76261c-0.11775,0.24875 -7.65398,3.60688 -16.60325,7.58689c-9.06702,4.10438 -30.61592,13.80565 -48.1612,21.89004c-46.63041,21.39254 -99.50175,45.52134 -123.64123,56.59074c-11.6576,5.34814 -39.21193,17.91004 -61.23185,27.98443c-22.01991,10.07439 -50.28077,23.00942 -62.8804,28.73068c-12.59963,5.72126 -22.96194,10.32315 -23.19745,10.19877c-0.11775,-0.24875 -0.47101,-88.18205 -0.58877,-195.51789l-0.35326,-195.02038l38.15215,-18.03441c21.07789,-9.82564 44.15758,-20.64629 51.2228,-23.88005c28.49636,-13.30815 124.81876,-58.08324 162.4999,-75.74452c48.98548,-22.88505 83.25176,-38.55633 84.54705,-38.6807c0.47101,-0.12438 0.82427,10.32315 0.94203,23.1338z" class="" data-stroke-color="#0057b8"/>
   <path stroke="#000" fill="#000" id="svg_4" d="m47.14817,465.88421l-5.34814,3.35813l0.74625,149.87217c0.37313,82.46079 1.11938,164.42407 1.4925,182.20973l0.87063,32.33756l11.94002,5.22376c6.59189,2.86063 21.51692,9.32814 33.08382,14.42753c11.69127,5.09939 38.1832,16.66628 59.07824,25.6213c20.89504,9.07939 44.15321,19.15379 51.61573,22.51192c7.58689,3.23376 29.10381,12.68628 47.88447,20.89504c18.78066,8.20877 52.48635,22.76067 74.8739,32.58631c25.99443,11.31815 41.41696,17.41253 42.90946,16.91503c1.24375,-0.4975 4.35313,-2.73626 7.08939,-5.09939l4.72626,-4.22876l-1.4925,-179.47348c-0.74625,-98.75394 -1.86563,-179.97098 -2.36313,-180.46848c-0.4975,-0.4975 -18.03441,-8.45752 -38.80508,-17.53691c-20.77067,-9.07939 -61.8145,-27.1138 -91.29143,-39.92445c-29.35256,-12.93503 -58.20761,-25.49693 -64.05325,-27.98443c-5.84564,-2.61188 -24.87505,-10.94502 -42.28758,-18.65629c-56.46636,-24.87505 -82.58516,-36.06882 -83.95329,-35.94445c-0.62188,0 -3.73126,1.61688 -6.71626,3.35813zm50.2476,40.91946c19.77566,8.95502 195.76664,85.94329 234.19859,102.60958l20.14879,8.70627l0,40.04883c0,21.89004 0.37313,94.89831 0.87063,162.06094l0.74625,122.13649l-30.34756,-13.5569c-33.33257,-14.80065 -106.34083,-46.64072 -140.41965,-61.317c-11.94002,-5.22376 -34.07882,-14.80065 -49.12822,-21.39254c-15.0494,-6.59189 -35.94445,-15.67128 -46.26759,-20.14879l-19.02941,-8.33314l0,-57.33699c0,-31.59131 -0.37313,-104.59958 -0.87063,-162.18532l-0.74625,-104.72396l9.20377,3.98001c5.09939,2.11438 14.80065,6.46751 21.64129,9.45252z" class="" data-stroke-color="#000"/>
  </g>
 </g></g></svg>